<mxfile host="app.diagrams.net" modified="2024-06-13T12:48:05.721Z" agent="Mozilla/5.0 (Windows NT 10.0; Win64; x64) AppleWebKit/537.36 (KHTML, like Gecko) Chrome/125.0.0.0 Safari/537.36" etag="Ee0PbCgsRZNeHOgHrEG_" version="24.5.4" type="github">
  <diagram id="C5RBs43oDa-KdzZeNtuy" name="Page-1">
    <mxGraphModel dx="1800" dy="1087" grid="0" gridSize="10" guides="0" tooltips="1" connect="1" arrows="1" fold="1" page="0" pageScale="1" pageWidth="827" pageHeight="1169" math="0" shadow="0">
      <root>
        <mxCell id="WIyWlLk6GJQsqaUBKTNV-0" />
        <mxCell id="WIyWlLk6GJQsqaUBKTNV-1" parent="WIyWlLk6GJQsqaUBKTNV-0" />
        <mxCell id="vrMutl9Br54j6cZ6q9lH-99" value="" style="edgeStyle=orthogonalEdgeStyle;rounded=0;orthogonalLoop=1;jettySize=auto;html=1;" edge="1" parent="WIyWlLk6GJQsqaUBKTNV-1" source="vrMutl9Br54j6cZ6q9lH-91" target="vrMutl9Br54j6cZ6q9lH-92">
          <mxGeometry relative="1" as="geometry" />
        </mxCell>
        <mxCell id="vrMutl9Br54j6cZ6q9lH-91" value="开始" style="rounded=1;whiteSpace=wrap;html=1;" vertex="1" parent="WIyWlLk6GJQsqaUBKTNV-1">
          <mxGeometry x="32" y="219" width="120" height="60" as="geometry" />
        </mxCell>
        <mxCell id="vrMutl9Br54j6cZ6q9lH-100" value="" style="edgeStyle=orthogonalEdgeStyle;rounded=0;orthogonalLoop=1;jettySize=auto;html=1;" edge="1" parent="WIyWlLk6GJQsqaUBKTNV-1" source="vrMutl9Br54j6cZ6q9lH-92" target="vrMutl9Br54j6cZ6q9lH-93">
          <mxGeometry relative="1" as="geometry" />
        </mxCell>
        <mxCell id="vrMutl9Br54j6cZ6q9lH-92" value="设备开机，携带设备信息向服务端登录" style="rounded=0;whiteSpace=wrap;html=1;" vertex="1" parent="WIyWlLk6GJQsqaUBKTNV-1">
          <mxGeometry x="32" y="297" width="120" height="60" as="geometry" />
        </mxCell>
        <mxCell id="vrMutl9Br54j6cZ6q9lH-102" value="" style="edgeStyle=orthogonalEdgeStyle;rounded=0;orthogonalLoop=1;jettySize=auto;html=1;" edge="1" parent="WIyWlLk6GJQsqaUBKTNV-1" source="vrMutl9Br54j6cZ6q9lH-93" target="vrMutl9Br54j6cZ6q9lH-94">
          <mxGeometry relative="1" as="geometry" />
        </mxCell>
        <mxCell id="vrMutl9Br54j6cZ6q9lH-105" value="否" style="edgeLabel;html=1;align=center;verticalAlign=middle;resizable=0;points=[];" vertex="1" connectable="0" parent="vrMutl9Br54j6cZ6q9lH-102">
          <mxGeometry x="-0.0476" y="-2" relative="1" as="geometry">
            <mxPoint as="offset" />
          </mxGeometry>
        </mxCell>
        <mxCell id="vrMutl9Br54j6cZ6q9lH-103" value="" style="edgeStyle=orthogonalEdgeStyle;rounded=0;orthogonalLoop=1;jettySize=auto;html=1;" edge="1" parent="WIyWlLk6GJQsqaUBKTNV-1" source="vrMutl9Br54j6cZ6q9lH-93" target="vrMutl9Br54j6cZ6q9lH-95">
          <mxGeometry relative="1" as="geometry" />
        </mxCell>
        <mxCell id="vrMutl9Br54j6cZ6q9lH-104" value="是" style="edgeLabel;html=1;align=center;verticalAlign=middle;resizable=0;points=[];" vertex="1" connectable="0" parent="vrMutl9Br54j6cZ6q9lH-103">
          <mxGeometry x="-0.0768" relative="1" as="geometry">
            <mxPoint as="offset" />
          </mxGeometry>
        </mxCell>
        <mxCell id="vrMutl9Br54j6cZ6q9lH-93" value="服务端判断&lt;div&gt;是否合法&lt;div&gt;被授权设备&lt;/div&gt;&lt;/div&gt;" style="rhombus;whiteSpace=wrap;html=1;" vertex="1" parent="WIyWlLk6GJQsqaUBKTNV-1">
          <mxGeometry x="30" y="375" width="124" height="80" as="geometry" />
        </mxCell>
        <mxCell id="vrMutl9Br54j6cZ6q9lH-94" value="结束" style="rounded=1;whiteSpace=wrap;html=1;" vertex="1" parent="WIyWlLk6GJQsqaUBKTNV-1">
          <mxGeometry x="-131" y="384" width="120" height="60" as="geometry" />
        </mxCell>
        <mxCell id="vrMutl9Br54j6cZ6q9lH-115" value="" style="edgeStyle=orthogonalEdgeStyle;rounded=0;orthogonalLoop=1;jettySize=auto;html=1;entryX=0.5;entryY=0;entryDx=0;entryDy=0;" edge="1" parent="WIyWlLk6GJQsqaUBKTNV-1" source="vrMutl9Br54j6cZ6q9lH-95" target="vrMutl9Br54j6cZ6q9lH-116">
          <mxGeometry relative="1" as="geometry">
            <mxPoint x="257" y="471" as="targetPoint" />
          </mxGeometry>
        </mxCell>
        <mxCell id="vrMutl9Br54j6cZ6q9lH-95" value="新建/更新设备信息&lt;div&gt;到数据库&lt;/div&gt;" style="rounded=0;whiteSpace=wrap;html=1;" vertex="1" parent="WIyWlLk6GJQsqaUBKTNV-1">
          <mxGeometry x="197" y="385" width="120" height="60" as="geometry" />
        </mxCell>
        <mxCell id="vrMutl9Br54j6cZ6q9lH-123" value="" style="edgeStyle=orthogonalEdgeStyle;rounded=0;orthogonalLoop=1;jettySize=auto;html=1;" edge="1" parent="WIyWlLk6GJQsqaUBKTNV-1" source="vrMutl9Br54j6cZ6q9lH-107" target="vrMutl9Br54j6cZ6q9lH-109">
          <mxGeometry relative="1" as="geometry" />
        </mxCell>
        <mxCell id="vrMutl9Br54j6cZ6q9lH-107" value="选择布局下发的设备筛选条件，将布局标识和设备条件发送到服务端" style="rounded=0;whiteSpace=wrap;html=1;" vertex="1" parent="WIyWlLk6GJQsqaUBKTNV-1">
          <mxGeometry x="432" y="40" width="120" height="60" as="geometry" />
        </mxCell>
        <mxCell id="vrMutl9Br54j6cZ6q9lH-124" value="" style="edgeStyle=orthogonalEdgeStyle;rounded=0;orthogonalLoop=1;jettySize=auto;html=1;" edge="1" parent="WIyWlLk6GJQsqaUBKTNV-1" source="vrMutl9Br54j6cZ6q9lH-109" target="vrMutl9Br54j6cZ6q9lH-119">
          <mxGeometry relative="1" as="geometry" />
        </mxCell>
        <mxCell id="vrMutl9Br54j6cZ6q9lH-109" value="根据布局标识查询有效布局信息" style="whiteSpace=wrap;html=1;" vertex="1" parent="WIyWlLk6GJQsqaUBKTNV-1">
          <mxGeometry x="430.99949656168627" y="134.0028362528484" width="120" height="60" as="geometry" />
        </mxCell>
        <mxCell id="vrMutl9Br54j6cZ6q9lH-111" value="" style="edgeStyle=orthogonalEdgeStyle;rounded=0;orthogonalLoop=1;jettySize=auto;html=1;" edge="1" parent="WIyWlLk6GJQsqaUBKTNV-1" source="vrMutl9Br54j6cZ6q9lH-110" target="vrMutl9Br54j6cZ6q9lH-107">
          <mxGeometry relative="1" as="geometry" />
        </mxCell>
        <mxCell id="vrMutl9Br54j6cZ6q9lH-110" value="设计好布局后，进&lt;div&gt;行布局下发&amp;nbsp;&lt;/div&gt;" style="shape=parallelogram;perimeter=parallelogramPerimeter;whiteSpace=wrap;html=1;fixedSize=1;" vertex="1" parent="WIyWlLk6GJQsqaUBKTNV-1">
          <mxGeometry x="432" y="-49" width="120" height="60" as="geometry" />
        </mxCell>
        <mxCell id="vrMutl9Br54j6cZ6q9lH-122" value="" style="edgeStyle=orthogonalEdgeStyle;rounded=0;orthogonalLoop=1;jettySize=auto;html=1;" edge="1" parent="WIyWlLk6GJQsqaUBKTNV-1" source="vrMutl9Br54j6cZ6q9lH-116" target="vrMutl9Br54j6cZ6q9lH-118">
          <mxGeometry relative="1" as="geometry" />
        </mxCell>
        <mxCell id="vrMutl9Br54j6cZ6q9lH-116" value="设备定时发送心跳请求给服务端" style="rounded=0;whiteSpace=wrap;html=1;" vertex="1" parent="WIyWlLk6GJQsqaUBKTNV-1">
          <mxGeometry x="197" y="476" width="120" height="60" as="geometry" />
        </mxCell>
        <mxCell id="vrMutl9Br54j6cZ6q9lH-137" value="" style="edgeStyle=orthogonalEdgeStyle;rounded=0;orthogonalLoop=1;jettySize=auto;html=1;" edge="1" parent="WIyWlLk6GJQsqaUBKTNV-1" source="vrMutl9Br54j6cZ6q9lH-118" target="vrMutl9Br54j6cZ6q9lH-136">
          <mxGeometry relative="1" as="geometry" />
        </mxCell>
        <mxCell id="vrMutl9Br54j6cZ6q9lH-118" value="设备定时发送心跳请求给服务端，检查布局状态" style="rounded=0;whiteSpace=wrap;html=1;" vertex="1" parent="WIyWlLk6GJQsqaUBKTNV-1">
          <mxGeometry x="197" y="575" width="120" height="60" as="geometry" />
        </mxCell>
        <mxCell id="vrMutl9Br54j6cZ6q9lH-127" value="" style="edgeStyle=orthogonalEdgeStyle;rounded=0;orthogonalLoop=1;jettySize=auto;html=1;" edge="1" parent="WIyWlLk6GJQsqaUBKTNV-1" source="vrMutl9Br54j6cZ6q9lH-119" target="vrMutl9Br54j6cZ6q9lH-120">
          <mxGeometry relative="1" as="geometry" />
        </mxCell>
        <mxCell id="vrMutl9Br54j6cZ6q9lH-119" value="根据设备条件查询设备列表" style="whiteSpace=wrap;html=1;" vertex="1" parent="WIyWlLk6GJQsqaUBKTNV-1">
          <mxGeometry x="430.99949656168627" y="227.0028362528484" width="120" height="60" as="geometry" />
        </mxCell>
        <mxCell id="vrMutl9Br54j6cZ6q9lH-128" value="" style="edgeStyle=orthogonalEdgeStyle;rounded=0;orthogonalLoop=1;jettySize=auto;html=1;" edge="1" parent="WIyWlLk6GJQsqaUBKTNV-1" source="vrMutl9Br54j6cZ6q9lH-120" target="vrMutl9Br54j6cZ6q9lH-121">
          <mxGeometry relative="1" as="geometry" />
        </mxCell>
        <mxCell id="vrMutl9Br54j6cZ6q9lH-120" value="将布局数据放入压缩包，上传到对象存储，返回布局下载地址" style="whiteSpace=wrap;html=1;" vertex="1" parent="WIyWlLk6GJQsqaUBKTNV-1">
          <mxGeometry x="430.99949656168627" y="316.0028362528484" width="120" height="60" as="geometry" />
        </mxCell>
        <mxCell id="vrMutl9Br54j6cZ6q9lH-147" value="" style="edgeStyle=orthogonalEdgeStyle;rounded=0;orthogonalLoop=1;jettySize=auto;html=1;" edge="1" parent="WIyWlLk6GJQsqaUBKTNV-1" source="vrMutl9Br54j6cZ6q9lH-121" target="vrMutl9Br54j6cZ6q9lH-146">
          <mxGeometry relative="1" as="geometry" />
        </mxCell>
        <mxCell id="vrMutl9Br54j6cZ6q9lH-121" value="将布局下载地址，设备选择条件等信息保存为发布历史，更新到数据库" style="whiteSpace=wrap;html=1;" vertex="1" parent="WIyWlLk6GJQsqaUBKTNV-1">
          <mxGeometry x="430.99949656168627" y="404.0028362528484" width="120" height="60" as="geometry" />
        </mxCell>
        <mxCell id="vrMutl9Br54j6cZ6q9lH-131" value="" style="edgeStyle=orthogonalEdgeStyle;rounded=0;orthogonalLoop=1;jettySize=auto;html=1;" edge="1" parent="WIyWlLk6GJQsqaUBKTNV-1" source="vrMutl9Br54j6cZ6q9lH-129" target="vrMutl9Br54j6cZ6q9lH-118">
          <mxGeometry relative="1" as="geometry" />
        </mxCell>
        <mxCell id="vrMutl9Br54j6cZ6q9lH-129" value="设备缓存：布局更新状态变更为有更新，布局标志更新为当前布局的sh265摘要" style="whiteSpace=wrap;html=1;" vertex="1" parent="WIyWlLk6GJQsqaUBKTNV-1">
          <mxGeometry x="430.99949656168627" y="575.0028362528484" width="120" height="60" as="geometry" />
        </mxCell>
        <mxCell id="vrMutl9Br54j6cZ6q9lH-139" value="" style="edgeStyle=orthogonalEdgeStyle;rounded=0;orthogonalLoop=1;jettySize=auto;html=1;entryX=0;entryY=0.5;entryDx=0;entryDy=0;" edge="1" parent="WIyWlLk6GJQsqaUBKTNV-1" source="vrMutl9Br54j6cZ6q9lH-136" target="vrMutl9Br54j6cZ6q9lH-118">
          <mxGeometry relative="1" as="geometry">
            <mxPoint x="114" y="707" as="targetPoint" />
            <Array as="points">
              <mxPoint x="177" y="707" />
              <mxPoint x="177" y="605" />
            </Array>
          </mxGeometry>
        </mxCell>
        <mxCell id="vrMutl9Br54j6cZ6q9lH-140" value="否" style="edgeLabel;html=1;align=center;verticalAlign=middle;resizable=0;points=[];" vertex="1" connectable="0" parent="vrMutl9Br54j6cZ6q9lH-139">
          <mxGeometry x="-0.0362" y="-2" relative="1" as="geometry">
            <mxPoint as="offset" />
          </mxGeometry>
        </mxCell>
        <mxCell id="vrMutl9Br54j6cZ6q9lH-142" value="" style="edgeStyle=orthogonalEdgeStyle;rounded=0;orthogonalLoop=1;jettySize=auto;html=1;" edge="1" parent="WIyWlLk6GJQsqaUBKTNV-1" source="vrMutl9Br54j6cZ6q9lH-136" target="vrMutl9Br54j6cZ6q9lH-144">
          <mxGeometry relative="1" as="geometry">
            <mxPoint x="256" y="837" as="targetPoint" />
          </mxGeometry>
        </mxCell>
        <mxCell id="vrMutl9Br54j6cZ6q9lH-145" value="是" style="edgeLabel;html=1;align=center;verticalAlign=middle;resizable=0;points=[];" vertex="1" connectable="0" parent="vrMutl9Br54j6cZ6q9lH-142">
          <mxGeometry x="-0.3011" relative="1" as="geometry">
            <mxPoint as="offset" />
          </mxGeometry>
        </mxCell>
        <mxCell id="vrMutl9Br54j6cZ6q9lH-136" value="设备端检查布局&lt;div&gt;状态是否存在更新&lt;/div&gt;" style="rhombus;whiteSpace=wrap;html=1;" vertex="1" parent="WIyWlLk6GJQsqaUBKTNV-1">
          <mxGeometry x="194" y="667" width="124" height="80" as="geometry" />
        </mxCell>
        <mxCell id="vrMutl9Br54j6cZ6q9lH-150" value="" style="edgeStyle=orthogonalEdgeStyle;rounded=0;orthogonalLoop=1;jettySize=auto;html=1;" edge="1" parent="WIyWlLk6GJQsqaUBKTNV-1" source="vrMutl9Br54j6cZ6q9lH-144" target="vrMutl9Br54j6cZ6q9lH-149">
          <mxGeometry relative="1" as="geometry" />
        </mxCell>
        <mxCell id="vrMutl9Br54j6cZ6q9lH-144" value="设备请求服务端&lt;div&gt;查询数据库中设备布局关联，查询发布历史获取布局下载地址&lt;/div&gt;" style="rounded=0;whiteSpace=wrap;html=1;" vertex="1" parent="WIyWlLk6GJQsqaUBKTNV-1">
          <mxGeometry x="196" y="784" width="120" height="60" as="geometry" />
        </mxCell>
        <mxCell id="vrMutl9Br54j6cZ6q9lH-148" value="" style="edgeStyle=orthogonalEdgeStyle;rounded=0;orthogonalLoop=1;jettySize=auto;html=1;" edge="1" parent="WIyWlLk6GJQsqaUBKTNV-1" source="vrMutl9Br54j6cZ6q9lH-146" target="vrMutl9Br54j6cZ6q9lH-129">
          <mxGeometry relative="1" as="geometry" />
        </mxCell>
        <mxCell id="vrMutl9Br54j6cZ6q9lH-146" value="将布局标识，发布历史标识与设别列表中的每个设备标识关联保存到数据库" style="whiteSpace=wrap;html=1;" vertex="1" parent="WIyWlLk6GJQsqaUBKTNV-1">
          <mxGeometry x="430.99949656168627" y="489.0028362528484" width="120" height="60" as="geometry" />
        </mxCell>
        <mxCell id="vrMutl9Br54j6cZ6q9lH-152" value="" style="edgeStyle=orthogonalEdgeStyle;rounded=0;orthogonalLoop=1;jettySize=auto;html=1;" edge="1" parent="WIyWlLk6GJQsqaUBKTNV-1" source="vrMutl9Br54j6cZ6q9lH-149" target="vrMutl9Br54j6cZ6q9lH-151">
          <mxGeometry relative="1" as="geometry" />
        </mxCell>
        <mxCell id="vrMutl9Br54j6cZ6q9lH-149" value="设备下载布局，解析布局并应用" style="rounded=0;whiteSpace=wrap;html=1;" vertex="1" parent="WIyWlLk6GJQsqaUBKTNV-1">
          <mxGeometry x="196" y="873" width="120" height="60" as="geometry" />
        </mxCell>
        <mxCell id="vrMutl9Br54j6cZ6q9lH-154" value="" style="edgeStyle=orthogonalEdgeStyle;rounded=0;orthogonalLoop=1;jettySize=auto;html=1;entryX=0;entryY=0.5;entryDx=0;entryDy=0;" edge="1" parent="WIyWlLk6GJQsqaUBKTNV-1" source="vrMutl9Br54j6cZ6q9lH-151" target="vrMutl9Br54j6cZ6q9lH-149">
          <mxGeometry relative="1" as="geometry">
            <mxPoint x="112" y="997" as="targetPoint" />
            <Array as="points">
              <mxPoint x="174" y="997" />
              <mxPoint x="174" y="903" />
            </Array>
          </mxGeometry>
        </mxCell>
        <mxCell id="vrMutl9Br54j6cZ6q9lH-155" value="是" style="edgeLabel;html=1;align=center;verticalAlign=middle;resizable=0;points=[];" vertex="1" connectable="0" parent="vrMutl9Br54j6cZ6q9lH-154">
          <mxGeometry x="0.0252" y="-1" relative="1" as="geometry">
            <mxPoint as="offset" />
          </mxGeometry>
        </mxCell>
        <mxCell id="vrMutl9Br54j6cZ6q9lH-157" value="" style="edgeStyle=orthogonalEdgeStyle;rounded=0;orthogonalLoop=1;jettySize=auto;html=1;" edge="1" parent="WIyWlLk6GJQsqaUBKTNV-1" source="vrMutl9Br54j6cZ6q9lH-151" target="vrMutl9Br54j6cZ6q9lH-156">
          <mxGeometry relative="1" as="geometry" />
        </mxCell>
        <mxCell id="vrMutl9Br54j6cZ6q9lH-158" value="否" style="edgeLabel;html=1;align=center;verticalAlign=middle;resizable=0;points=[];" vertex="1" connectable="0" parent="vrMutl9Br54j6cZ6q9lH-157">
          <mxGeometry x="-0.5802" relative="1" as="geometry">
            <mxPoint as="offset" />
          </mxGeometry>
        </mxCell>
        <mxCell id="vrMutl9Br54j6cZ6q9lH-151" value="解析布局&lt;div&gt;是否失败&lt;/div&gt;" style="rhombus;whiteSpace=wrap;html=1;" vertex="1" parent="WIyWlLk6GJQsqaUBKTNV-1">
          <mxGeometry x="194" y="957" width="124" height="80" as="geometry" />
        </mxCell>
        <mxCell id="vrMutl9Br54j6cZ6q9lH-156" value="下次心跳" style="whiteSpace=wrap;html=1;" vertex="1" parent="WIyWlLk6GJQsqaUBKTNV-1">
          <mxGeometry x="196" y="1068" width="120" height="60" as="geometry" />
        </mxCell>
      </root>
    </mxGraphModel>
  </diagram>
</mxfile>
